# xmcd
#
# Track frame offsets: 
#        150
#        12395
#        28596
#        41245
#        59319
#        85509
#        101083
#        108781
#        128682
#        141624
#        151184
#
# Disc length: 2535 seconds
#
# Revision: 3
# Processed by: cddbd v1.5.2PL0 Copyright (c) Steve Scherf et al.
# Submitted via: ExactAudioCopy v0.90b4
#
DISCID=8a09e50b
DTITLE=Queens Of The Stone Age - Rated R (Deluxe Edition) [CD1]
DYEAR=2010
DGENRE=Rock
TTITLE0=Feel Good Hit Of The Summer
TTITLE1=The Lost Art Of Keeping A Secret
TTITLE2=Leg Of Lamb
TTITLE3=Auto Pilot
TTITLE4=Better Living Through Chemistry
TTITLE5=Monsters In The Parasol
TTITLE6=Quick And To The Pointless
TTITLE7=In The Fade
TTITLE8=Tension Head
TTITLE9=Lightning Song
TTITLE10=I Think I Lost My Headache
EXTD=
EXTT0=
EXTT1=
EXTT2=
EXTT3=
EXTT4=
EXTT5=
EXTT6=
EXTT7=
EXTT8=
EXTT9=
EXTT10=
PLAYORDER=
